<?xml version="1.0" standalone="no"?>
<!DOCTYPE svg PUBLIC "-//W3C//DTD SVG 20010904//EN"
 "http://www.w3.org/TR/2001/REC-SVG-20010904/DTD/svg10.dtd">
<svg version="1.0" xmlns="http://www.w3.org/2000/svg"
 width="800.000000pt" height="800.000000pt" viewBox="0 0 800.000000 800.000000"
 preserveAspectRatio="xMidYMid meet">
<metadata>
Created by potrace 1.14, written by Peter Selinger 2001-2017
</metadata>
<g transform="translate(0.000000,800.000000) scale(0.100000,-0.100000)"
fill="#000000" stroke="none">
<path d="M0 4000 l0 -4000 4000 0 4000 0 0 4000 0 4000 -4000 0 -4000 0 0
-4000z m4215 2585 c171 -17 338 -91 488 -215 187 -155 336 -357 478 -647 89
-183 107 -228 188 -468 75 -220 112 -356 160 -590 34 -167 41 -190 58 -188 10
2 47 7 83 12 65 10 192 2 310 -19 156 -29 481 -139 600 -204 113 -61 284 -258
329 -379 6 -15 22 -51 35 -80 34 -72 92 -308 111 -452 35 -267 35 -721 0
-1118 -23 -260 -95 -782 -111 -809 -3 -4 -435 -8 -960 -8 l-954 0 0 23 c0 12
6 56 14 97 53 278 60 719 17 965 -43 245 -106 458 -160 539 -35 53 -64 59
-157 35 -76 -20 -105 -18 -158 9 -34 17 -49 33 -111 122 -24 36 -55 78 -67 93
l-23 28 -55 -96 c-134 -236 -170 -226 -232 62 -17 82 -32 149 -34 151 -1 2
-24 -8 -51 -21 -45 -24 -79 -31 -130 -28 -12 1 -48 23 -81 51 -65 54 -78 58
-122 35 -41 -21 -69 -62 -139 -202 -72 -145 -103 -175 -180 -175 -34 0 -62 7
-93 26 -67 39 -100 35 -152 -18 -116 -120 -227 -400 -261 -658 -26 -199 -12
-661 25 -808 5 -19 14 -69 20 -110 6 -41 13 -85 17 -98 l5 -22 -868 2 -869 3
-38 115 c-89 267 -170 632 -209 945 -18 141 -17 785 0 930 37 300 103 585 186
802 34 89 103 222 169 324 45 69 163 201 219 243 166 127 320 185 533 200 145
11 238 -10 389 -85 4 -2 27 50 51 116 82 232 234 558 345 740 231 377 522 642
831 759 113 42 403 92 469 80 8 -1 47 -5 85 -9z"/>
</g>
</svg>
